<?xml version="1.0" encoding="UTF-8" standalone="no"?>
<!-- Created with Inkscape (http://www.inkscape.org/) -->

<svg
   width="1000.0001"
   height="1000.0001"
   viewBox="0 0 264.58335 264.58335"
   version="1.1"
   id="svg1"
   xml:space="preserve"
   xmlns="http://www.w3.org/2000/svg"
   xmlns:svg="http://www.w3.org/2000/svg"><defs
     id="defs1"><style
       id="style1">.cls-1{fill:#f59a38;}.cls-2{fill:#676866;}.cls-3{fill:#ea580c;}.cls-4{fill:#ef7b10;}.cls-5{fill:#e72679;}.cls-6{fill:#c1d109;}.cls-7{fill:#8cbe26;}.cls-8{fill:#6eae2d;}.cls-9{fill:#9d1560;}</style></defs><g
     id="layer1"><g
       id="g4"
       transform="matrix(0.57936444,0,0,0.57936444,-164.59495,-43.229689)"><rect
         class="cls-7"
         x="710.13"
         y="400.38"
         width="29.290001"
         height="29.290001"
         id="rect1" /><rect
         class="cls-6"
         x="616.40997"
         y="400.38"
         width="84.940002"
         height="29.290001"
         id="rect2" /><polygon
         class="cls-1"
         points="487.54,400.38 487.54,517.53 452.4,517.53 452.4,508.74 467.04,502.89 467.04,429.66 414.32,429.66 414.32,400.38 "
         id="polygon2" /><rect
         class="cls-7"
         x="323.53"
         y="362.29999"
         width="29.290001"
         height="67.360001"
         id="rect3" /><rect
         class="cls-7"
         x="285.45001"
         y="400.38"
         width="29.290001"
         height="29.290001"
         id="rect4" /><path
         class="cls-6"
         d="m 300.1,362.3 h 14.64 v 29.29 h -29.29 v -14.64 c 0,-8.08 6.56,-14.64 14.64,-14.64 z"
         id="path4" /><path
         class="cls-6"
         d="m 338.17,286.15 h 14.64 v 29.29 H 323.52 V 300.8 c 0,-8.08 6.56,-14.64 14.64,-14.64 z"
         id="path5" /><path
         class="cls-6"
         d="m 376.25,204.15 h 14.64 v 29.29 H 361.6 V 218.8 c 0,-8.08 6.56,-14.64 14.64,-14.64 z"
         id="path6" /><path
         class="cls-6"
         d="m 686.7,283.22 h 14.64 v 29.29 h -29.29 v -14.64 c 0,-8.08 6.56,-14.64 14.64,-14.64 z"
         transform="rotate(90,686.7,297.87)"
         id="path7" /><path
         class="cls-9"
         d="m 724.78,362.3 h 14.64 v 29.29 h -29.29 v -14.64 c 0,-8.08 6.56,-14.64 14.64,-14.64 z"
         transform="rotate(90,724.775,376.945)"
         id="path8" /><rect
         class="cls-6"
         x="399.67999"
         y="286.14999"
         width="29.290001"
         height="67.360001"
         id="rect8" /><rect
         class="cls-8"
         x="437.75"
         y="324.23001"
         width="29.290001"
         height="67.360001"
         id="rect9" /><rect
         class="cls-4"
         x="475.82999"
         y="324.23001"
         width="29.290001"
         height="67.360001"
         id="rect10" /><rect
         class="cls-4"
         x="513.90002"
         y="362.29999"
         width="73.220001"
         height="29.290001"
         id="rect11" /><rect
         class="cls-7"
         x="513.90002"
         y="324.23001"
         width="73.220001"
         height="29.290001"
         id="rect12" /><rect
         class="cls-3"
         x="595.90997"
         y="324.23001"
         width="29.290001"
         height="67.360001"
         id="rect13" /><rect
         class="cls-6"
         x="633.97998"
         y="283.22"
         width="29.290001"
         height="108.37"
         id="rect14" /><rect
         class="cls-1"
         x="672.06"
         y="321.29999"
         width="29.290001"
         height="70.290001"
         id="rect15" /><rect
         class="cls-1"
         x="361.60001"
         y="362.29999"
         width="67.360001"
         height="29.290001"
         id="rect16" /><rect
         class="cls-7"
         x="361.60001"
         y="286.14999"
         width="29.290001"
         height="29.290001"
         id="rect17" /><rect
         class="cls-4"
         x="399.67999"
         y="248.08"
         width="29.290001"
         height="29.290001"
         id="rect18" /><polygon
         class="cls-6"
         points="437.75,277.37 437.75,210 508.05,210 508.05,239.29 467.04,239.29 467.04,277.37 "
         id="polygon18" /><path
         class="cls-6"
         d="m 663.27,183.64 v 43.93 h -29.29 v -29.29 h -29.29 v -29.29 h 43.93 c 8.08,0 14.64,6.56 14.64,14.64 z"
         id="path18" /><path
         class="cls-6"
         d="m 467.04,88.38 v 29.29 h -37.3 v 36.68 h -29.29 v -51.33 c 0,-8.08 6.56,-14.64 14.64,-14.64 h 51.94 z"
         id="path19" /><rect
         class="cls-7"
         x="516.83002"
         y="210"
         width="64.43"
         height="29.290001"
         id="rect19" /><rect
         class="cls-7"
         x="478.76001"
         y="130.92999"
         width="58.580002"
         height="29.290001"
         id="rect20" /><polygon
         class="cls-1"
         points="475.83,286.15 475.83,248.08 505.12,248.08 505.12,315.44 437.75,315.44 437.75,286.15 "
         id="polygon20" /><rect
         class="cls-8"
         x="513.90002"
         y="286.14999"
         width="29.290001"
         height="29.290001"
         id="rect21" /><rect
         class="cls-9"
         x="590.04999"
         y="248.08"
         width="35.150002"
         height="29.290001"
         id="rect22" /><polygon
         class="cls-5"
         points="624.99,286.15 624.99,315.44 551.98,315.44 551.98,277.37 516.83,277.37 516.83,248.08 581.27,248.08 581.27,286.15 "
         id="polygon22" /><rect
         class="cls-5"
         x="323.53"
         y="324.23001"
         width="67.360001"
         height="29.290001"
         id="rect23" /><rect
         class="cls-6"
         x="361.60001"
         y="400.38"
         width="43.93"
         height="29.290001"
         id="rect24" /><polygon
         class="cls-1"
         points="607.62,400.38 607.62,429.66 554.91,429.66 554.91,502.89 569.55,508.74 569.55,517.53 534.4,517.53 534.4,400.38 "
         id="polygon24" /><rect
         class="cls-4"
         x="496.32999"
         y="400.38"
         width="29.290001"
         height="117.15"
         id="rect25" /></g></g></svg>
